<mxfile>
    <diagram id="iwSzF17s-HHxviFLJCXF" name="Page-1">
        <mxGraphModel dx="70" dy="617" grid="1" gridSize="10" guides="1" tooltips="1" connect="1" arrows="1" fold="1" page="1" pageScale="1" pageWidth="850" pageHeight="1100" math="0" shadow="0">
            <root>
                <mxCell id="0"/>
                <mxCell id="1" parent="0"/>
                <mxCell id="5" value="Random&lt;br&gt;" style="html=1;" vertex="1" parent="1">
                    <mxGeometry x="30" y="170" width="270" height="210" as="geometry"/>
                </mxCell>
                <mxCell id="6" value="Program" style="html=1;" vertex="1" parent="1">
                    <mxGeometry x="470" y="155" width="280" height="240" as="geometry"/>
                </mxCell>
                <mxCell id="7" value="File" style="html=1;" vertex="1" parent="1">
                    <mxGeometry x="490" y="470" width="250" height="170" as="geometry"/>
                </mxCell>
            </root>
        </mxGraphModel>
    </diagram>
</mxfile>